<svg xmlns="http://www.w3.org/2000/svg" xmlns:xlink="http://www.w3.org/1999/xlink" version="1.1" data-diagram-type="CLASS" style="width:1726px;height:1589px;background:#FFFFFF;" width="1726.563px" height="1589.063px" viewBox="0 0 1726 1589" zoomAndPan="magnify" preserveAspectRatio="none" contentStyleType="text/css"><?plantuml 1.2026.8?><defs/><g font-family="sans-serif" lengthAdjust="spacing"><!--class Usuario--><g class="entity" data-qualified-name="Usuario" id="ent0001" data-source-line="10"><rect x="1108.891" y="10.938" width="154.706" height="152.82" fill="#FFF" style="stroke:#12355B;stroke-width:0.781;" rx="6.25" ry="6.25"/><rect x="1108.891" y="10.938" width="154.706" height="65.503" fill="#EAF1FB" style="stroke:#EAF1FB;stroke-width:0.781;" rx="6.25" ry="6.25"/><rect x="1108.891" y="70.19" width="154.706" height="6.25" fill="#EAF1FB" style="stroke:#EAF1FB;stroke-width:0.781;"/><rect x="1108.891" y="10.938" width="154.706" height="152.82" fill="none" style="stroke:#12355B;stroke-width:0.781;" rx="6.25" ry="6.25"/><ellipse cx="1148.918" cy="43.689" rx="15.625" ry="15.625" fill="#ADD1B2" style="stroke:#181818;stroke-width:1.563;"/><path d="M1151.237,39.319 Q1151.408,39.075 1151.603,38.953 Q1151.823,38.831 1152.067,38.831 Q1152.482,38.831 1152.726,39.124 Q1152.995,39.417 1152.995,40.076 L1152.995,41.687 Q1152.995,42.346 1152.726,42.639 Q1152.482,42.932 1152.067,42.932 Q1151.677,42.932 1151.457,42.712 Q1151.237,42.517 1151.115,41.931 Q1151.066,41.541 1150.871,41.345 Q1150.48,40.93 1149.797,40.686 Q1149.138,40.442 1148.454,40.442 Q1147.624,40.442 1146.916,40.808 Q1146.208,41.174 1145.671,42.004 Q1145.134,42.81 1145.134,43.958 L1145.134,45.178 Q1145.134,46.521 1146.11,47.424 Q1147.111,48.328 1148.845,48.328 Q1149.894,48.328 1150.627,48.059 Q1151.042,47.888 1151.506,47.4 Q1151.799,47.107 1151.97,47.034 Q1152.14,46.936 1152.336,46.936 Q1152.726,46.936 1152.995,47.229 Q1153.288,47.498 1153.288,47.888 Q1153.288,48.279 1152.897,48.718 Q1152.336,49.353 1151.457,49.719 Q1150.285,50.208 1148.869,50.208 Q1147.184,50.208 1145.866,49.524 Q1144.767,48.987 1144.011,47.791 Q1143.254,46.594 1143.254,45.203 L1143.254,43.933 Q1143.254,42.468 1143.937,41.199 Q1144.621,39.929 1145.817,39.246 Q1147.038,38.562 1148.381,38.562 Q1149.211,38.562 1149.919,38.757 Q1150.627,38.928 1151.237,39.319 Z " fill="#000"/><text x="1174.399" y="38.983" fill="#000" font-size="18.75" textLength="65.222" font-style="italic" font-family="Segoe UI">«Entity»</text><text x="1173.264" y="63.922" fill="#000" font-size="18.75" textLength="67.493" font-weight="700" font-family="'Segoe UI'">Usuario</text><line x1="1110.453" y1="76.44" x2="1262.034" y2="76.44" style="stroke:#12355B;stroke-width:0.781;"/><text x="1118.266" y="102.924" fill="#000" font-size="18.75" textLength="81.317" font-family="'Segoe UI'">-id : UUID</text><text x="1118.266" y="127.863" fill="#000" font-size="18.75" textLength="135.956" font-family="'Segoe UI'">-nombre : String</text><text x="1118.266" y="152.802" fill="#000" font-size="18.75" textLength="124.338" font-family="'Segoe UI'">-correo : String</text></g><!--class Categoria--><g class="entity" data-qualified-name="Categoria" id="ent0002" data-source-line="16"><rect x="793.266" y="23.406" width="154.706" height="127.881" fill="#FFF" style="stroke:#12355B;stroke-width:0.781;" rx="6.25" ry="6.25"/><rect x="793.266" y="23.406" width="154.706" height="65.503" fill="#EAF1FB" style="stroke:#EAF1FB;stroke-width:0.781;" rx="6.25" ry="6.25"/><rect x="793.266" y="82.659" width="154.706" height="6.25" fill="#EAF1FB" style="stroke:#EAF1FB;stroke-width:0.781;"/><rect x="793.266" y="23.406" width="154.706" height="127.881" fill="none" style="stroke:#12355B;stroke-width:0.781;" rx="6.25" ry="6.25"/><ellipse cx="825.333" cy="56.158" rx="15.625" ry="15.625" fill="#ADD1B2" style="stroke:#181818;stroke-width:1.563;"/><path d="M827.653,51.788 Q827.823,51.543 828.019,51.421 Q828.238,51.299 828.483,51.299 Q828.898,51.299 829.142,51.592 Q829.41,51.885 829.41,52.544 L829.41,54.156 Q829.41,54.815 829.142,55.108 Q828.898,55.401 828.483,55.401 Q828.092,55.401 827.872,55.181 Q827.653,54.986 827.53,54.4 Q827.482,54.009 827.286,53.814 Q826.896,53.399 826.212,53.155 Q825.553,52.911 824.869,52.911 Q824.039,52.911 823.331,53.277 Q822.623,53.643 822.086,54.473 Q821.549,55.279 821.549,56.426 L821.549,57.647 Q821.549,58.99 822.526,59.893 Q823.527,60.796 825.26,60.796 Q826.31,60.796 827.042,60.528 Q827.457,60.357 827.921,59.869 Q828.214,59.576 828.385,59.502 Q828.556,59.405 828.751,59.405 Q829.142,59.405 829.41,59.698 Q829.703,59.966 829.703,60.357 Q829.703,60.748 829.313,61.187 Q828.751,61.822 827.872,62.188 Q826.7,62.676 825.284,62.676 Q823.6,62.676 822.281,61.993 Q821.183,61.456 820.426,60.259 Q819.669,59.063 819.669,57.671 L819.669,56.402 Q819.669,54.937 820.353,53.667 Q821.036,52.398 822.233,51.714 Q823.453,51.031 824.796,51.031 Q825.626,51.031 826.334,51.226 Q827.042,51.397 827.653,51.788 Z " fill="#000"/><text x="857.89" y="51.452" fill="#000" font-size="18.75" textLength="65.222" font-style="italic" font-family="Segoe UI">«Entity»</text><text x="847.911" y="76.391" fill="#000" font-size="18.75" textLength="85.181" font-weight="700" font-family="'Segoe UI'">Categoria</text><line x1="794.828" y1="88.909" x2="946.409" y2="88.909" style="stroke:#12355B;stroke-width:0.781;"/><text x="802.641" y="115.392" fill="#000" font-size="18.75" textLength="81.317" font-family="'Segoe UI'">-id : UUID</text><text x="802.641" y="140.331" fill="#000" font-size="18.75" textLength="135.956" font-family="'Segoe UI'">-nombre : String</text></g><!--class Reporte--><g class="entity" data-qualified-name="Reporte" id="ent0003" data-source-line="21"><rect x="662.797" y="274.688" width="415.631" height="439.648" fill="#FFF" style="stroke:#12355B;stroke-width:0.781;" rx="6.25" ry="6.25"/><rect x="662.797" y="274.688" width="415.631" height="65.503" fill="#EAF1FB" style="stroke:#EAF1FB;stroke-width:0.781;" rx="6.25" ry="6.25"/><rect x="662.797" y="333.94" width="415.631" height="6.25" fill="#EAF1FB" style="stroke:#EAF1FB;stroke-width:0.781;"/><rect x="662.797" y="274.688" width="415.631" height="439.648" fill="none" style="stroke:#12355B;stroke-width:0.781;" rx="6.25" ry="6.25"/><ellipse cx="829.174" cy="307.439" rx="15.625" ry="15.625" fill="#ADD1B2" style="stroke:#181818;stroke-width:1.563;"/><path d="M831.493,303.069 Q831.664,302.825 831.86,302.703 Q832.079,302.581 832.324,302.581 Q832.739,302.581 832.983,302.874 Q833.251,303.167 833.251,303.826 L833.251,305.437 Q833.251,306.096 832.983,306.389 Q832.739,306.682 832.324,306.682 Q831.933,306.682 831.713,306.462 Q831.493,306.267 831.371,305.681 Q831.323,305.291 831.127,305.095 Q830.737,304.68 830.053,304.436 Q829.394,304.192 828.71,304.192 Q827.88,304.192 827.172,304.558 Q826.464,304.924 825.927,305.754 Q825.39,306.56 825.39,307.708 L825.39,308.928 Q825.39,310.271 826.367,311.174 Q827.367,312.078 829.101,312.078 Q830.151,312.078 830.883,311.809 Q831.298,311.638 831.762,311.15 Q832.055,310.857 832.226,310.784 Q832.397,310.686 832.592,310.686 Q832.983,310.686 833.251,310.979 Q833.544,311.248 833.544,311.638 Q833.544,312.029 833.154,312.468 Q832.592,313.103 831.713,313.469 Q830.541,313.958 829.125,313.958 Q827.441,313.958 826.122,313.274 Q825.024,312.737 824.267,311.541 Q823.51,310.344 823.51,308.953 L823.51,307.683 Q823.51,306.218 824.194,304.949 Q824.877,303.679 826.074,302.996 Q827.294,302.312 828.637,302.312 Q829.467,302.312 830.175,302.507 Q830.883,302.678 831.493,303.069 Z " fill="#000"/><text x="861.439" y="302.733" fill="#000" font-size="18.75" textLength="65.222" font-style="italic" font-family="Segoe UI">«Entity»</text><text x="858.862" y="327.672" fill="#000" font-size="18.75" textLength="70.377" font-weight="700" font-family="'Segoe UI'">Reporte</text><line x1="664.359" y1="340.19" x2="1076.865" y2="340.19" style="stroke:#12355B;stroke-width:0.781;"/><text x="672.172" y="366.674" fill="#000" font-size="18.75" textLength="81.317" font-family="'Segoe UI'">-id : UUID</text><text x="672.172" y="391.613" fill="#000" font-size="18.75" textLength="156.821" font-family="'Segoe UI'">-tipo : TipoReporte</text><text x="672.172" y="416.552" fill="#000" font-size="18.75" textLength="224.625" font-family="'Segoe UI'">-descripcionPublica : String</text><text x="672.172" y="441.49" fill="#000" font-size="18.75" textLength="205.701" font-family="'Segoe UI'">-fechaSuceso : LocalDate</text><text x="672.172" y="466.429" fill="#000" font-size="18.75" textLength="198.587" font-family="'Segoe UI'">-estado : EstadoReporte</text><text x="672.172" y="491.368" fill="#000" font-size="18.75" textLength="325.708" font-family="'Segoe UI'">-fechaDevolucion : LocalDateTime [0..1]</text><line x1="664.359" y1="502.324" x2="1076.865" y2="502.324" style="stroke:#12355B;stroke-width:0.781;"/><text x="672.172" y="528.807" fill="#000" font-size="18.75" textLength="363.501" font-family="'Segoe UI'">+Reporte(datos, autor, categoria, ubicacion)</text><text x="672.172" y="553.746" fill="#000" font-size="18.75" textLength="140.488" font-family="'Segoe UI'">+publicar() : void</text><text x="672.172" y="578.685" fill="#000" font-size="18.75" textLength="139.673" font-family="'Segoe UI'">+reservar() : void</text><text x="672.172" y="603.624" fill="#000" font-size="18.75" textLength="396.881" font-family="'Segoe UI'">+marcarEntregado(fecha : LocalDateTime) : void</text><text x="672.172" y="628.563" fill="#1E6B3A" font-size="18.75" textLength="323.621" font-family="'Segoe UI'">+ agregarPregunta(texto : String) : void</text><text x="672.172" y="653.502" fill="#1E6B3A" font-size="18.75" textLength="223.663" font-family="'Segoe UI'">+ esEncontrado() : boolean</text><text x="672.172" y="678.441" fill="#1E6B3A" font-size="18.75" textLength="196.381" font-family="'Segoe UI'">+ estaActivo() : boolean</text><text x="672.172" y="703.38" fill="#1E6B3A" font-size="18.75" textLength="313.568" font-family="'Segoe UI'">+ esAutor(usuario : Usuario) : boolean</text></g><!--class Ubicacion--><g class="entity" data-qualified-name="Ubicacion" id="ent0004" data-source-line="38"><rect x="312.406" y="912.563" width="310.181" height="190.259" fill="#FFF" style="stroke:#12355B;stroke-width:0.781;" rx="6.25" ry="6.25"/><rect x="312.406" y="912.563" width="310.181" height="65.503" fill="#EAF1FB" style="stroke:#EAF1FB;stroke-width:0.781;" rx="6.25" ry="6.25"/><rect x="312.406" y="971.815" width="310.181" height="6.25" fill="#EAF1FB" style="stroke:#EAF1FB;stroke-width:0.781;"/><rect x="312.406" y="912.563" width="310.181" height="190.259" fill="none" style="stroke:#12355B;stroke-width:0.781;" rx="6.25" ry="6.25"/><ellipse cx="405.05" cy="945.314" rx="15.625" ry="15.625" fill="#ADD1B2" style="stroke:#181818;stroke-width:1.563;"/><path d="M407.369,940.944 Q407.54,940.7 407.736,940.578 Q407.955,940.456 408.199,940.456 Q408.614,940.456 408.859,940.749 Q409.127,941.042 409.127,941.701 L409.127,943.312 Q409.127,943.971 408.859,944.264 Q408.614,944.557 408.199,944.557 Q407.809,944.557 407.589,944.337 Q407.369,944.142 407.247,943.556 Q407.198,943.166 407.003,942.97 Q406.612,942.555 405.929,942.311 Q405.27,942.067 404.586,942.067 Q403.756,942.067 403.048,942.433 Q402.34,942.799 401.803,943.629 Q401.266,944.435 401.266,945.583 L401.266,946.803 Q401.266,948.146 402.242,949.049 Q403.243,949.953 404.977,949.953 Q406.027,949.953 406.759,949.684 Q407.174,949.513 407.638,949.025 Q407.931,948.732 408.102,948.659 Q408.273,948.561 408.468,948.561 Q408.859,948.561 409.127,948.854 Q409.42,949.123 409.42,949.513 Q409.42,949.904 409.029,950.343 Q408.468,950.978 407.589,951.344 Q406.417,951.833 405.001,951.833 Q403.317,951.833 401.998,951.149 Q400.9,950.612 400.143,949.416 Q399.386,948.219 399.386,946.828 L399.386,945.558 Q399.386,944.093 400.07,942.824 Q400.753,941.554 401.949,940.871 Q403.17,940.187 404.513,940.187 Q405.343,940.187 406.051,940.382 Q406.759,940.553 407.369,940.944 Z " fill="#000"/><text x="431.612" y="940.608" fill="#000" font-size="18.75" textLength="118.643" font-style="italic" font-family="Segoe UI">«Embeddable»</text><text x="447.566" y="965.547" fill="#000" font-size="18.75" textLength="86.737" font-weight="700" font-family="'Segoe UI'">Ubicacion</text><line x1="313.969" y1="978.065" x2="621.024" y2="978.065" style="stroke:#12355B;stroke-width:0.781;"/><text x="321.781" y="1004.549" fill="#000" font-size="18.75" textLength="132.825" font-family="'Segoe UI'">-latitud : double</text><text x="321.781" y="1029.488" fill="#000" font-size="18.75" textLength="149.57" font-family="'Segoe UI'">-longitud : double</text><text x="321.781" y="1054.427" fill="#000" font-size="18.75" textLength="110.477" font-family="'Segoe UI'">-zona : String</text><line x1="313.969" y1="1065.382" x2="621.024" y2="1065.382" style="stroke:#12355B;stroke-width:0.781;"/><text x="321.781" y="1091.865" fill="#000" font-size="18.75" textLength="291.431" font-family="'Segoe UI'">+estaDentroDelCampus() : boolean</text></g><!--class PreguntaVerificacion--><g class="entity" data-qualified-name="PreguntaVerificacion" id="ent0005" data-source-line="45"><rect x="10.938" y="943.75" width="231.857" height="127.881" fill="#FFF" style="stroke:#12355B;stroke-width:0.781;" rx="6.25" ry="6.25"/><rect x="10.938" y="943.75" width="231.857" height="65.503" fill="#EAF1FB" style="stroke:#EAF1FB;stroke-width:0.781;" rx="6.25" ry="6.25"/><rect x="10.938" y="1003.003" width="231.857" height="6.25" fill="#EAF1FB" style="stroke:#EAF1FB;stroke-width:0.781;"/><rect x="10.938" y="943.75" width="231.857" height="127.881" fill="none" style="stroke:#12355B;stroke-width:0.781;" rx="6.25" ry="6.25"/><ellipse cx="32.813" cy="976.501" rx="15.625" ry="15.625" fill="#ADD1B2" style="stroke:#181818;stroke-width:1.563;"/><path d="M35.132,972.131 Q35.303,971.887 35.498,971.765 Q35.718,971.643 35.962,971.643 Q36.377,971.643 36.621,971.936 Q36.89,972.229 36.89,972.888 L36.89,974.5 Q36.89,975.159 36.621,975.452 Q36.377,975.745 35.962,975.745 Q35.571,975.745 35.352,975.525 Q35.132,975.33 35.01,974.744 Q34.961,974.353 34.766,974.158 Q34.375,973.743 33.691,973.499 Q33.032,973.254 32.349,973.254 Q31.519,973.254 30.811,973.621 Q30.103,973.987 29.565,974.817 Q29.028,975.623 29.028,976.77 L29.028,977.991 Q29.028,979.333 30.005,980.237 Q31.006,981.14 32.739,981.14 Q33.789,981.14 34.521,980.872 Q34.937,980.701 35.4,980.212 Q35.693,979.919 35.864,979.846 Q36.035,979.749 36.23,979.749 Q36.621,979.749 36.89,980.042 Q37.183,980.31 37.183,980.701 Q37.183,981.091 36.792,981.531 Q36.23,982.166 35.352,982.532 Q34.18,983.02 32.764,983.02 Q31.079,983.02 29.761,982.336 Q28.662,981.799 27.905,980.603 Q27.148,979.407 27.148,978.015 L27.148,976.746 Q27.148,975.281 27.832,974.011 Q28.516,972.742 29.712,972.058 Q30.933,971.375 32.275,971.375 Q33.105,971.375 33.813,971.57 Q34.521,971.741 35.132,972.131 Z " fill="#000"/><text x="113.005" y="971.796" fill="#000" font-size="18.75" textLength="65.222" font-style="italic" font-family="Segoe UI">«Entity»</text><text x="53.125" y="996.735" fill="#000" font-size="18.75" textLength="184.982" font-weight="700" font-family="'Segoe UI'">PreguntaVerificacion</text><line x1="12.5" y1="1009.253" x2="241.232" y2="1009.253" style="stroke:#12355B;stroke-width:0.781;"/><text x="20.313" y="1035.736" fill="#000" font-size="18.75" textLength="81.317" font-family="'Segoe UI'">-id : UUID</text><text x="20.313" y="1060.675" fill="#000" font-size="18.75" textLength="112.967" font-family="'Segoe UI'">-texto : String</text></g><!--class Reclamacion--><g class="entity" data-qualified-name="Reclamacion" id="ent0006" data-source-line="50"><rect x="1165.438" y="825.281" width="450.998" height="364.832" fill="#FFF" style="stroke:#12355B;stroke-width:0.781;" rx="6.25" ry="6.25"/><rect x="1165.438" y="825.281" width="450.998" height="65.503" fill="#EAF1FB" style="stroke:#EAF1FB;stroke-width:0.781;" rx="6.25" ry="6.25"/><rect x="1165.438" y="884.534" width="450.998" height="6.25" fill="#EAF1FB" style="stroke:#EAF1FB;stroke-width:0.781;"/><rect x="1165.438" y="825.281" width="450.998" height="364.832" fill="none" style="stroke:#12355B;stroke-width:0.781;" rx="6.25" ry="6.25"/><ellipse cx="1329.086" cy="858.033" rx="15.625" ry="15.625" fill="#ADD1B2" style="stroke:#181818;stroke-width:1.563;"/><path d="M1331.406,853.663 Q1331.577,853.418 1331.772,853.296 Q1331.992,853.174 1332.236,853.174 Q1332.651,853.174 1332.895,853.467 Q1333.164,853.76 1333.164,854.419 L1333.164,856.031 Q1333.164,856.69 1332.895,856.983 Q1332.651,857.276 1332.236,857.276 Q1331.845,857.276 1331.626,857.056 Q1331.406,856.861 1331.284,856.275 Q1331.235,855.884 1331.04,855.689 Q1330.649,855.274 1329.965,855.03 Q1329.306,854.786 1328.623,854.786 Q1327.793,854.786 1327.085,855.152 Q1326.377,855.518 1325.839,856.348 Q1325.302,857.154 1325.302,858.301 L1325.302,859.522 Q1325.302,860.865 1326.279,861.768 Q1327.28,862.671 1329.013,862.671 Q1330.063,862.671 1330.795,862.403 Q1331.211,862.232 1331.674,861.744 Q1331.967,861.451 1332.138,861.377 Q1332.309,861.28 1332.504,861.28 Q1332.895,861.28 1333.164,861.573 Q1333.457,861.841 1333.457,862.232 Q1333.457,862.623 1333.066,863.062 Q1332.504,863.697 1331.626,864.063 Q1330.454,864.551 1329.038,864.551 Q1327.353,864.551 1326.035,863.868 Q1324.936,863.331 1324.179,862.134 Q1323.422,860.938 1323.422,859.546 L1323.422,858.277 Q1323.422,856.812 1324.106,855.542 Q1324.79,854.273 1325.986,853.589 Q1327.207,852.906 1328.549,852.906 Q1329.379,852.906 1330.087,853.101 Q1330.795,853.272 1331.406,853.663 Z " fill="#000"/><text x="1381.763" y="853.327" fill="#000" font-size="18.75" textLength="65.222" font-style="italic" font-family="Segoe UI">«Entity»</text><text x="1358.774" y="878.266" fill="#000" font-size="18.75" textLength="111.2" font-weight="700" font-family="'Segoe UI'">Reclamacion</text><line x1="1167" y1="890.784" x2="1614.873" y2="890.784" style="stroke:#12355B;stroke-width:0.781;"/><text x="1174.813" y="917.267" fill="#000" font-size="18.75" textLength="81.317" font-family="'Segoe UI'">-id : UUID</text><text x="1174.813" y="942.206" fill="#000" font-size="18.75" textLength="260.312" font-family="'Segoe UI'">-fechaCreacion : LocalDateTime</text><text x="1174.813" y="967.145" fill="#000" font-size="18.75" textLength="237.131" font-family="'Segoe UI'">-estado : EstadoReclamacion</text><line x1="1167" y1="978.101" x2="1614.873" y2="978.101" style="stroke:#12355B;stroke-width:0.781;"/><text x="1174.813" y="1004.584" fill="#000" font-size="18.75" textLength="282.816" font-family="'Segoe UI'">+Reclamacion(reclamante, objeto)</text><text x="1174.813" y="1029.523" fill="#000" font-size="18.75" textLength="135.471" font-family="'Segoe UI'">+aceptar() : void</text><text x="1174.813" y="1054.462" fill="#000" font-size="18.75" textLength="157.608" font-family="'Segoe UI'">+completar() : void</text><text x="1174.813" y="1079.401" fill="#1E6B3A" font-size="18.75" textLength="416.354" font-family="'Segoe UI'">+ agregarRespuesta(pregunta, textoPrivado) : void</text><text x="1174.813" y="1104.34" fill="#1E6B3A" font-size="18.75" textLength="432.248" font-family="'Segoe UI'">+ registrarAcuerdo(acuerdo : AcuerdoEntrega) : void</text><text x="1174.813" y="1129.279" fill="#1E6B3A" font-size="18.75" textLength="227.838" font-family="'Segoe UI'">+ estaPendiente() : boolean</text><text x="1174.813" y="1154.218" fill="#1E6B3A" font-size="18.75" textLength="222.821" font-family="'Segoe UI'">+ estaAceptada() : boolean</text><text x="1174.813" y="1179.157" fill="#1E6B3A" font-size="18.75" textLength="363.226" font-family="'Segoe UI'">+ esReclamante(usuario : Usuario) : boolean</text></g><!--class RespuestaVerificacion--><g class="entity" data-qualified-name="RespuestaVerificacion" id="ent0007" data-source-line="64"><rect x="534.766" y="1369.641" width="240.436" height="127.881" fill="#FFF" style="stroke:#12355B;stroke-width:0.781;" rx="6.25" ry="6.25"/><rect x="534.766" y="1369.641" width="240.436" height="65.503" fill="#EAF1FB" style="stroke:#EAF1FB;stroke-width:0.781;" rx="6.25" ry="6.25"/><rect x="534.766" y="1428.894" width="240.436" height="6.25" fill="#EAF1FB" style="stroke:#EAF1FB;stroke-width:0.781;"/><rect x="534.766" y="1369.641" width="240.436" height="127.881" fill="none" style="stroke:#12355B;stroke-width:0.781;" rx="6.25" ry="6.25"/><ellipse cx="556.641" cy="1402.392" rx="15.625" ry="15.625" fill="#ADD1B2" style="stroke:#181818;stroke-width:1.563;"/><path d="M558.96,1398.022 Q559.131,1397.778 559.326,1397.656 Q559.546,1397.534 559.79,1397.534 Q560.205,1397.534 560.449,1397.827 Q560.718,1398.12 560.718,1398.779 L560.718,1400.39 Q560.718,1401.049 560.449,1401.342 Q560.205,1401.635 559.79,1401.635 Q559.399,1401.635 559.18,1401.416 Q558.96,1401.22 558.838,1400.634 Q558.789,1400.244 558.594,1400.048 Q558.203,1399.633 557.52,1399.389 Q556.86,1399.145 556.177,1399.145 Q555.347,1399.145 554.639,1399.511 Q553.931,1399.877 553.394,1400.708 Q552.856,1401.513 552.856,1402.661 L552.856,1403.881 Q552.856,1405.224 553.833,1406.127 Q554.834,1407.031 556.567,1407.031 Q557.617,1407.031 558.35,1406.762 Q558.765,1406.591 559.229,1406.103 Q559.521,1405.81 559.692,1405.737 Q559.863,1405.639 560.059,1405.639 Q560.449,1405.639 560.718,1405.932 Q561.011,1406.201 561.011,1406.591 Q561.011,1406.982 560.62,1407.421 Q560.059,1408.056 559.18,1408.422 Q558.008,1408.911 556.592,1408.911 Q554.907,1408.911 553.589,1408.227 Q552.49,1407.69 551.733,1406.494 Q550.977,1405.297 550.977,1403.906 L550.977,1402.636 Q550.977,1401.171 551.66,1399.902 Q552.344,1398.632 553.54,1397.949 Q554.761,1397.265 556.104,1397.265 Q556.934,1397.265 557.642,1397.46 Q558.35,1397.631 558.96,1398.022 Z " fill="#000"/><text x="641.122" y="1397.686" fill="#000" font-size="18.75" textLength="65.222" font-style="italic" font-family="Segoe UI">«Entity»</text><text x="576.953" y="1422.625" fill="#000" font-size="18.75" textLength="193.561" font-weight="700" font-family="'Segoe UI'">RespuestaVerificacion</text><line x1="536.328" y1="1435.144" x2="773.639" y2="1435.144" style="stroke:#12355B;stroke-width:0.781;"/><text x="544.141" y="1461.627" fill="#000" font-size="18.75" textLength="81.317" font-family="'Segoe UI'">-id : UUID</text><text x="544.141" y="1486.566" fill="#000" font-size="18.75" textLength="175.076" font-family="'Segoe UI'">-textoPrivado : String</text></g><!--class AcuerdoEntrega--><g class="entity" data-qualified-name="AcuerdoEntrega" id="ent0008" data-source-line="69"><rect x="952.703" y="1301.047" width="463.953" height="265.076" fill="#FFF" style="stroke:#12355B;stroke-width:0.781;" rx="6.25" ry="6.25"/><rect x="952.703" y="1301.047" width="463.953" height="65.503" fill="#EAF1FB" style="stroke:#EAF1FB;stroke-width:0.781;" rx="6.25" ry="6.25"/><rect x="952.703" y="1360.3" width="463.953" height="6.25" fill="#EAF1FB" style="stroke:#EAF1FB;stroke-width:0.781;"/><rect x="952.703" y="1301.047" width="463.953" height="265.076" fill="none" style="stroke:#12355B;stroke-width:0.781;" rx="6.25" ry="6.25"/><ellipse cx="1107.366" cy="1333.798" rx="15.625" ry="15.625" fill="#ADD1B2" style="stroke:#181818;stroke-width:1.563;"/><path d="M1109.686,1329.428 Q1109.856,1329.184 1110.052,1329.062 Q1110.271,1328.94 1110.516,1328.94 Q1110.931,1328.94 1111.175,1329.233 Q1111.443,1329.526 1111.443,1330.185 L1111.443,1331.796 Q1111.443,1332.456 1111.175,1332.749 Q1110.931,1333.042 1110.516,1333.042 Q1110.125,1333.042 1109.905,1332.822 Q1109.686,1332.626 1109.563,1332.041 Q1109.515,1331.65 1109.319,1331.455 Q1108.929,1331.04 1108.245,1330.795 Q1107.586,1330.551 1106.902,1330.551 Q1106.072,1330.551 1105.364,1330.917 Q1104.656,1331.284 1104.119,1332.114 Q1103.582,1332.919 1103.582,1334.067 L1103.582,1335.288 Q1103.582,1336.63 1104.559,1337.534 Q1105.56,1338.437 1107.293,1338.437 Q1108.343,1338.437 1109.075,1338.168 Q1109.49,1337.998 1109.954,1337.509 Q1110.247,1337.216 1110.418,1337.143 Q1110.589,1337.045 1110.784,1337.045 Q1111.175,1337.045 1111.443,1337.338 Q1111.736,1337.607 1111.736,1337.998 Q1111.736,1338.388 1111.346,1338.828 Q1110.784,1339.462 1109.905,1339.829 Q1108.733,1340.317 1107.317,1340.317 Q1105.633,1340.317 1104.314,1339.633 Q1103.216,1339.096 1102.459,1337.9 Q1101.702,1336.704 1101.702,1335.312 L1101.702,1334.042 Q1101.702,1332.578 1102.386,1331.308 Q1103.069,1330.039 1104.266,1329.355 Q1105.486,1328.671 1106.829,1328.671 Q1107.659,1328.671 1108.367,1328.867 Q1109.075,1329.038 1109.686,1329.428 Z " fill="#000"/><text x="1175.506" y="1329.093" fill="#000" font-size="18.75" textLength="65.222" font-style="italic" font-family="Segoe UI">«Entity»</text><text x="1137.054" y="1354.031" fill="#000" font-size="18.75" textLength="142.126" font-weight="700" font-family="'Segoe UI'">AcuerdoEntrega</text><line x1="954.266" y1="1366.55" x2="1415.093" y2="1366.55" style="stroke:#12355B;stroke-width:0.781;"/><text x="962.078" y="1393.033" fill="#000" font-size="18.75" textLength="81.317" font-family="'Segoe UI'">-id : UUID</text><text x="962.078" y="1417.972" fill="#000" font-size="18.75" textLength="113.113" font-family="'Segoe UI'">-lugar : String</text><text x="962.078" y="1442.911" fill="#000" font-size="18.75" textLength="271.335" font-family="'Segoe UI'">-fechaPropuesta : LocalDateTime</text><text x="962.078" y="1467.85" fill="#000" font-size="18.75" textLength="343.46" font-family="'Segoe UI'">-fechaConfirmacion : LocalDateTime [0..1]</text><line x1="954.266" y1="1478.806" x2="1415.093" y2="1478.806" style="stroke:#12355B;stroke-width:0.781;"/><text x="962.078" y="1505.289" fill="#000" font-size="18.75" textLength="445.203" font-family="'Segoe UI'">+AcuerdoEntrega(reclamacion, lugar, fechaPropuesta)</text><text x="962.078" y="1530.228" fill="#000" font-size="18.75" textLength="333.966" font-family="'Segoe UI'">+confirmar(fecha : LocalDateTime) : void</text><text x="962.078" y="1555.167" fill="#1E6B3A" font-size="18.75" textLength="242.615" font-family="'Segoe UI'">+ estaConfirmado() : boolean</text></g><!--class TipoReporte--><g class="entity" data-qualified-name="TipoReporte" id="ent0009" data-source-line="79"><rect x="692.281" y="953.063" width="156.656" height="109.253" fill="#E3F4E8" style="stroke:#12355B;stroke-width:0.781;" rx="6.25" ry="6.25"/><ellipse cx="714.156" cy="976.5" rx="15.625" ry="15.625" fill="#EB937F" style="stroke:#181818;stroke-width:1.563;"/><path d="M713.961,978.111 L713.961,980.87 L718.746,980.87 L718.746,979.845 Q718.746,979.186 718.99,978.893 Q719.259,978.6 719.674,978.6 Q720.089,978.6 720.357,978.893 Q720.626,979.186 720.626,979.845 L720.626,982.75 L711.788,982.75 Q711.104,982.75 710.812,982.506 Q710.519,982.237 710.519,981.798 Q710.519,981.383 710.812,981.139 Q711.104,980.87 711.788,980.87 L712.081,980.87 L712.081,973.521 L711.788,973.521 Q711.104,973.521 710.812,973.277 Q710.519,973.009 710.519,972.594 Q710.519,972.154 710.812,971.91 Q711.104,971.642 711.788,971.642 L720.211,971.642 L720.211,974.498 Q720.211,975.182 719.942,975.475 Q719.698,975.743 719.259,975.743 Q718.844,975.743 718.575,975.475 Q718.331,975.182 718.331,974.498 L718.331,973.521 L713.961,973.521 L713.961,976.231 L715.597,976.231 Q715.597,975.499 715.743,975.304 Q716.012,974.84 716.549,974.84 Q716.964,974.84 717.208,975.133 Q717.477,975.426 717.477,976.109 L717.477,978.258 Q717.477,978.868 717.33,979.088 Q717.037,979.527 716.549,979.527 Q716.012,979.527 715.743,979.063 Q715.597,978.868 715.597,978.111 L713.961,978.111 Z " fill="#000"/><text x="734.469" y="984.264" fill="#000" font-size="18.75" textLength="109.781" font-weight="700" font-family="'Segoe UI'">TipoReporte</text><line x1="693.844" y1="999.938" x2="847.375" y2="999.938" style="stroke:#12355B;stroke-width:0.781;"/><text x="701.656" y="1026.421" fill="#000" font-size="18.75" textLength="76.62" font-family="'Segoe UI'">PERDIDO</text><text x="701.656" y="1051.36" fill="#000" font-size="18.75" textLength="123.697" font-family="'Segoe UI'">ENCONTRADO</text></g><!--class EstadoReporte--><g class="entity" data-qualified-name="EstadoReporte" id="ent0010" data-source-line="83"><rect x="918.578" y="928.125" width="175.937" height="159.131" fill="#E3F4E8" style="stroke:#12355B;stroke-width:0.781;" rx="6.25" ry="6.25"/><ellipse cx="940.453" cy="951.563" rx="15.625" ry="15.625" fill="#EB937F" style="stroke:#181818;stroke-width:1.563;"/><path d="M940.258,953.174 L940.258,955.933 L945.043,955.933 L945.043,954.907 Q945.043,954.248 945.287,953.955 Q945.556,953.662 945.971,953.662 Q946.386,953.662 946.654,953.955 Q946.923,954.248 946.923,954.907 L946.923,957.813 L938.085,957.813 Q937.401,957.813 937.108,957.568 Q936.815,957.3 936.815,956.86 Q936.815,956.445 937.108,956.201 Q937.401,955.933 938.085,955.933 L938.378,955.933 L938.378,948.584 L938.085,948.584 Q937.401,948.584 937.108,948.34 Q936.815,948.071 936.815,947.656 Q936.815,947.217 937.108,946.973 Q937.401,946.704 938.085,946.704 L946.508,946.704 L946.508,949.561 Q946.508,950.244 946.239,950.537 Q945.995,950.806 945.556,950.806 Q945.141,950.806 944.872,950.537 Q944.628,950.244 944.628,949.561 L944.628,948.584 L940.258,948.584 L940.258,951.294 L941.894,951.294 Q941.894,950.562 942.04,950.366 Q942.309,949.902 942.846,949.902 Q943.261,949.902 943.505,950.195 Q943.773,950.488 943.773,951.172 L943.773,953.32 Q943.773,953.931 943.627,954.15 Q943.334,954.59 942.846,954.59 Q942.309,954.59 942.04,954.126 Q941.894,953.931 941.894,953.174 L940.258,953.174 Z " fill="#000"/><text x="960.766" y="959.326" fill="#000" font-size="18.75" textLength="129.062" font-weight="700" font-family="'Segoe UI'">EstadoReporte</text><line x1="920.141" y1="975" x2="1092.953" y2="975" style="stroke:#12355B;stroke-width:0.781;"/><text x="927.953" y="1001.483" fill="#000" font-size="18.75" textLength="97.906" font-family="'Segoe UI'">BORRADOR</text><text x="927.953" y="1026.422" fill="#000" font-size="18.75" textLength="64.297" font-family="'Segoe UI'">ACTIVO</text><text x="927.953" y="1051.361" fill="#000" font-size="18.75" textLength="102.383" font-family="'Segoe UI'">RESERVADO</text><text x="927.953" y="1076.3" fill="#000" font-size="18.75" textLength="106.274" font-family="'Segoe UI'">ENTREGADO</text></g><!--class EstadoReclamacion--><g class="entity" data-qualified-name="EstadoReclamacion" id="ent0011" data-source-line="89"><rect x="1487.234" y="1366.484" width="216.76" height="134.192" fill="#E3F4E8" style="stroke:#12355B;stroke-width:0.781;" rx="6.25" ry="6.25"/><ellipse cx="1509.109" cy="1389.922" rx="15.625" ry="15.625" fill="#EB937F" style="stroke:#181818;stroke-width:1.563;"/><path d="M1508.914,1391.533 L1508.914,1394.292 L1513.699,1394.292 L1513.699,1393.267 Q1513.699,1392.607 1513.943,1392.314 Q1514.212,1392.021 1514.627,1392.021 Q1515.042,1392.021 1515.311,1392.314 Q1515.579,1392.607 1515.579,1393.267 L1515.579,1396.172 L1506.741,1396.172 Q1506.058,1396.172 1505.765,1395.928 Q1505.472,1395.659 1505.472,1395.22 Q1505.472,1394.805 1505.765,1394.561 Q1506.058,1394.292 1506.741,1394.292 L1507.034,1394.292 L1507.034,1386.943 L1506.741,1386.943 Q1506.058,1386.943 1505.765,1386.699 Q1505.472,1386.431 1505.472,1386.016 Q1505.472,1385.576 1505.765,1385.332 Q1506.058,1385.063 1506.741,1385.063 L1515.164,1385.063 L1515.164,1387.92 Q1515.164,1388.604 1514.896,1388.896 Q1514.651,1389.165 1514.212,1389.165 Q1513.797,1389.165 1513.528,1388.896 Q1513.284,1388.604 1513.284,1387.92 L1513.284,1386.943 L1508.914,1386.943 L1508.914,1389.653 L1510.55,1389.653 Q1510.55,1388.921 1510.696,1388.726 Q1510.965,1388.262 1511.502,1388.262 Q1511.917,1388.262 1512.161,1388.555 Q1512.43,1388.848 1512.43,1389.531 L1512.43,1391.68 Q1512.43,1392.29 1512.283,1392.51 Q1511.99,1392.949 1511.502,1392.949 Q1510.965,1392.949 1510.696,1392.485 Q1510.55,1392.29 1510.55,1391.533 L1508.914,1391.533 Z " fill="#000"/><text x="1529.422" y="1397.686" fill="#000" font-size="18.75" textLength="169.885" font-weight="700" font-family="'Segoe UI'">EstadoReclamacion</text><line x1="1488.797" y1="1413.359" x2="1702.432" y2="1413.359" style="stroke:#12355B;stroke-width:0.781;"/><text x="1496.609" y="1439.843" fill="#000" font-size="18.75" textLength="94.968" font-family="'Segoe UI'">PENDIENTE</text><text x="1496.609" y="1464.781" fill="#000" font-size="18.75" textLength="90.848" font-family="'Segoe UI'">ACEPTADA</text><text x="1496.609" y="1489.72" fill="#000" font-size="18.75" textLength="118.552" font-family="'Segoe UI'">COMPLETADA</text></g><!--reverse link Usuario to Reporte--><g class="link" data-entity-1="ent0001" data-entity-2="ent0003" id="lnk12" data-source-line="95" data-link-type="dependency"><path d="M1122.439,170.593 C1097.72,202.218 1072.406,234.625 1041.609,274.047" style="stroke:#3A4A5E;stroke-width:1.563;" fill="none" id="Usuario-backto-Reporte" codeLine="95"/><polygon points="1127.25,164.438,1113.666,171.668,1122.439,170.593,1123.514,179.366,1127.25,164.438" fill="#3A4A5E" style="stroke:#3A4A5E;stroke-width:1.563;stroke-linejoin:miter;stroke-miterlimit:10;"/><text x="1094.547" y="225.923" fill="#3A4A5E" font-size="15.625" textLength="36.674" font-family="'Segoe UI'">autor</text><text x="1111.026" y="193.054" fill="#3A4A5E" font-size="15.625" font-family="'Segoe UI'">1</text><text x="1030.131" y="257.996" fill="#3A4A5E" font-size="15.625" textLength="21.713" font-family="'Segoe UI'">0..*</text></g><!--reverse link Categoria to Reporte--><g class="link" data-entity-1="ent0002" data-entity-2="ent0003" id="lnk13" data-source-line="96" data-link-type="dependency"><path d="M870.609,159.859 C870.609,193.484 870.609,229.234 870.609,273.938" style="stroke:#3A4A5E;stroke-width:1.563;" fill="none" id="Categoria-backto-Reporte" codeLine="96"/><polygon points="870.609,152.047,864.359,166.109,870.609,159.859,876.859,166.109,870.609,152.047" fill="#3A4A5E" style="stroke:#3A4A5E;stroke-width:1.563;stroke-linejoin:miter;stroke-miterlimit:10;"/><text x="872.172" y="225.923" fill="#3A4A5E" font-size="15.625" textLength="64.156" font-family="'Segoe UI'">categoria</text><text x="862.221" y="180.876" fill="#3A4A5E" font-size="15.625" font-family="'Segoe UI'">1</text><text x="849.809" y="258.601" fill="#3A4A5E" font-size="15.625" textLength="21.713" font-family="'Segoe UI'">0..*</text></g><!--reverse link Reporte to Ubicacion--><g class="link" data-entity-1="ent0003" data-entity-2="ent0004" id="lnk14" data-source-line="97" data-link-type="composition"><path d="M686.278,729.318 C631.56,798.537 585.594,856.703 541.672,912.281" style="stroke:#3A4A5E;stroke-width:1.563;" fill="none" id="Reporte-backto-Ubicacion" codeLine="97"/><polygon points="697.906,714.609,687.189,718.088,686.278,729.318,696.995,725.84,697.906,714.609" fill="#3A4A5E" style="stroke:#3A4A5E;stroke-width:1.563;stroke-linejoin:miter;stroke-miterlimit:10;"/><text x="658.531" y="776.517" fill="#3A4A5E" font-size="15.625" textLength="65.979" font-family="'Segoe UI'">ubicacion</text><text x="542.461" y="895.992" fill="#3A4A5E" font-size="15.625" font-family="'Segoe UI'">1</text></g><!--reverse link Reporte to PreguntaVerificacion--><g class="link" data-entity-1="ent0003" data-entity-2="ent0005" id="lnk15" data-source-line="98" data-link-type="composition"><path d="M645.377,595.975 C525.737,654.241 393.453,728.609 276.859,825.281 C235.734,859.391 197.422,905.953 169.813,943.281" style="stroke:#3A4A5E;stroke-width:1.563;" fill="none" id="Reporte-backto-PreguntaVerificacion" codeLine="98"/><polygon points="662.234,587.766,651.069,586.251,645.377,595.975,656.542,597.489,662.234,587.766" fill="#3A4A5E" style="stroke:#3A4A5E;stroke-width:1.563;stroke-linejoin:miter;stroke-miterlimit:10;"/><text x="366.781" y="776.517" fill="#3A4A5E" font-size="15.625" textLength="69.55" font-family="'Segoe UI'">preguntas</text><text x="642.167" y="589.132" fill="#3A4A5E" font-size="15.625" font-family="'Segoe UI'">1</text><text x="155.047" y="927.519" fill="#3A4A5E" font-size="15.625" textLength="21.713" font-family="'Segoe UI'">0..*</text></g><!--reverse link Usuario to Reclamacion--><g class="link" data-entity-1="ent0001" data-entity-2="ent0006" id="lnk16" data-source-line="99" data-link-type="dependency"><path d="M1204.78,171.984 C1236.795,315.437 1305.547,623.516 1350.484,824.906" style="stroke:#3A4A5E;stroke-width:1.563;" fill="none" id="Usuario-backto-Reclamacion" codeLine="99"/><polygon points="1203.078,164.359,1200.041,179.446,1204.78,171.984,1212.241,176.723,1203.078,164.359" fill="#3A4A5E" style="stroke:#3A4A5E;stroke-width:1.563;stroke-linejoin:miter;stroke-miterlimit:10;"/><text x="1326.922" y="501.22" fill="#3A4A5E" font-size="15.625" textLength="76.271" font-family="'Segoe UI'">reclamante</text><text x="1197.044" y="192.965" fill="#3A4A5E" font-size="15.625" font-family="'Segoe UI'">1</text><text x="1326.975" y="809.109" fill="#3A4A5E" font-size="15.625" textLength="21.713" font-family="'Segoe UI'">0..*</text></g><!--reverse link Reporte to Reclamacion--><g class="link" data-entity-1="ent0003" data-entity-2="ent0006" id="lnk17" data-source-line="100" data-link-type="dependency"><path d="M1084.078,705.329 C1126.109,746.548 1164.469,784.141 1205.656,824.516" style="stroke:#3A4A5E;stroke-width:1.563;" fill="none" id="Reporte-backto-Reclamacion" codeLine="100"/><polygon points="1078.5,699.859,1084.164,714.168,1084.078,705.329,1092.916,705.243,1078.5,699.859" fill="#3A4A5E" style="stroke:#3A4A5E;stroke-width:1.563;stroke-linejoin:miter;stroke-miterlimit:10;"/><text x="1147.938" y="776.517" fill="#3A4A5E" font-size="15.625" textLength="44.746" font-family="'Segoe UI'">objeto</text><text x="1090.762" y="707.706" fill="#3A4A5E" font-size="15.625" font-family="'Segoe UI'">1</text><text x="1172.868" y="808.693" fill="#3A4A5E" font-size="15.625" textLength="21.713" font-family="'Segoe UI'">0..*</text></g><!--reverse link Reclamacion to RespuestaVerificacion--><g class="link" data-entity-1="ent0006" data-entity-2="ent0007" id="lnk18" data-source-line="101" data-link-type="composition"><path d="M1149.289,1178.483 C1137.492,1185.937 1141.578,1183.188 1129.984,1190.109 C1096.875,1209.906 905.359,1306.547 775.859,1371.531" style="stroke:#3A4A5E;stroke-width:1.563;" fill="none" id="Reclamacion-backto-RespuestaVerificacion" codeLine="101"/><polygon points="1165.141,1168.469,1153.877,1168.192,1149.289,1178.483,1160.553,1178.76,1165.141,1168.469" fill="#3A4A5E" style="stroke:#3A4A5E;stroke-width:1.563;stroke-linejoin:miter;stroke-miterlimit:10;"/><text x="1041.469" y="1252.283" fill="#3A4A5E" font-size="15.625" textLength="72.937" font-family="'Segoe UI'">respuestas</text><text x="1144.783" y="1173.267" fill="#3A4A5E" font-size="15.625" font-family="'Segoe UI'">1</text><text x="787.592" y="1361.67" fill="#3A4A5E" font-size="15.625" textLength="21.713" font-family="'Segoe UI'">1..*</text></g><!--reverse link PreguntaVerificacion to RespuestaVerificacion--><g class="link" data-entity-1="ent0005" data-entity-2="ent0007" id="lnk19" data-source-line="102" data-link-type="dependency"><path d="M175.942,1078.282 C203.77,1115.141 237.125,1155 276.859,1190.109 C356.438,1260.422 458.406,1324.422 536.406,1368.906" style="stroke:#3A4A5E;stroke-width:1.563;" fill="none" id="PreguntaVerificacion-backto-RespuestaVerificacion" codeLine="102"/><polygon points="171.234,1072.047,174.72,1087.036,175.942,1078.282,184.696,1079.504,171.234,1072.047" fill="#3A4A5E" style="stroke:#3A4A5E;stroke-width:1.563;stroke-linejoin:miter;stroke-miterlimit:10;"/><text x="355" y="1252.283" fill="#3A4A5E" font-size="15.625" textLength="62.92" font-family="'Segoe UI'">pregunta</text><text x="169.919" y="1100.821" fill="#3A4A5E" font-size="15.625" font-family="'Segoe UI'">1</text><text x="500.49" y="1356.363" fill="#3A4A5E" font-size="15.625" textLength="21.713" font-family="'Segoe UI'">0..*</text></g><!--link Reclamacion to AcuerdoEntrega--><g class="link" data-entity-1="ent0006" data-entity-2="ent0008" id="lnk20" data-source-line="103" data-link-type="association"><path d="M1302.563,1190.391 C1284.516,1227.375 1265.859,1265.609 1248.859,1300.453" style="stroke:#3A4A5E;stroke-width:1.563;" fill="none" id="Reclamacion-AcuerdoEntrega" codeLine="103"/><text x="1277.016" y="1252.283" fill="#3A4A5E" font-size="15.625" textLength="55.969" font-family="'Segoe UI'">acuerdo</text><text x="1288.858" y="1219.621" fill="#3A4A5E" font-size="15.625" font-family="'Segoe UI'">1</text><text x="1229.938" y="1284.708" fill="#3A4A5E" font-size="15.625" textLength="23.621" font-family="'Segoe UI'">0..1</text></g><!--link Reporte to TipoReporte--><g class="link" data-entity-1="ent0003" data-entity-2="ent0009" id="lnk21" data-source-line="105" data-link-type="dependency"><path d="M827.766,714.609 C810.594,802.219 793.769,888.021 782.628,944.849" style="stroke:#3A4A5E;stroke-width:1.563;stroke-dasharray:10.938,10.938;" fill="none" id="Reporte-to-TipoReporte" codeLine="105"/><polygon points="781.125,952.516,789.964,939.918,782.628,944.849,777.697,937.513,781.125,952.516" fill="#3A4A5E" style="stroke:#3A4A5E;stroke-width:1.563;stroke-linejoin:miter;stroke-miterlimit:10;"/></g><!--link Reporte to EstadoReporte--><g class="link" data-entity-1="ent0003" data-entity-2="ent0010" id="lnk22" data-source-line="106" data-link-type="dependency"><path d="M928.859,714.609 C949.031,790.313 968.363,862.857 983.566,919.889" style="stroke:#3A4A5E;stroke-width:1.563;stroke-dasharray:10.938,10.938;" fill="none" id="Reporte-to-EstadoReporte" codeLine="106"/><polygon points="985.578,927.438,987.995,912.24,983.566,919.889,975.917,915.459,985.578,927.438" fill="#3A4A5E" style="stroke:#3A4A5E;stroke-width:1.563;stroke-linejoin:miter;stroke-miterlimit:10;"/></g><!--link Reclamacion to EstadoReclamacion--><g class="link" data-entity-1="ent0006" data-entity-2="ent0011" id="lnk23" data-source-line="107" data-link-type="dependency"><path d="M1478.625,1190.391 C1508.797,1252.688 1537.282,1311.547 1560.142,1358.75" style="stroke:#3A4A5E;stroke-width:1.563;stroke-dasharray:10.938,10.938;" fill="none" id="Reclamacion-to-EstadoReclamacion" codeLine="107"/><polygon points="1563.547,1365.781,1563.043,1350.401,1560.142,1358.75,1551.793,1355.849,1563.547,1365.781" fill="#3A4A5E" style="stroke:#3A4A5E;stroke-width:1.563;stroke-linejoin:miter;stroke-miterlimit:10;"/></g><?plantuml-src bLRDRjj64BxhAQREeR8ZgtKJ5uLW650a9d2Gs08j-rBqC2B7oZRBNNPtATGj0lGX-W8zznJqs5ly9dsIplAVCfrO5t4vcczczfjlP_cLK97COWAoJaWz5baY1r_3NE3QO8B0_qGIBLc_YeMbkuzw0Yd-af4ZI7HCKiEGb1CnnkprUZ7T7tE0a6w4GY09d_v-MtZv03eHIcZ0A4ioYR66__xu4yvKP2ZX61g--_IlzvC8IpI4S0IHLY2r1ITIdHVn6ZS8j-nY0PLs60cjYiG-xoK1vt1KWDRa71bRkZSRmLJVSjapJDBCZc2EJjkGKcqSZU2baCwqtlD_5zbAYaZRV7E1WWsPc2QS19W9i1poxYF6ukuVGCdqM3ISHtA5Ttz9OONrvfA-yS2-5of5vXSKKsCfXUV7BQD1zTuRZuy7xuHlJPAwMqWeMV5U1WE_3GjNDaF3L9wS14o-kpqzXTy708SWOfZ0rTNPF7zJEbaPOikbCqAjSrkaZI7Ts3vKCMVeQAsDm5sZrX5Aqhw4zytazoK_IaHkPYuY8rBVqO9lx1P-Gz4xlCmYiXxzHaSekJa5blNhzJI185-qm-QmEMsqp7peDdGf4e8VlnsFZtvYrwTL_SFOztm4c3bjHX1Ll8mWMt5LFif-xfyMPPhXFaVTQ17dLiCzDPjjQuA6FPaNGskkS9YNjLrC2t4IQQdDvCbHyFsBPzFJfy17af5cmR-PSZXqzAjhsbWXJxx9SQTz4SW6YW-KCpw_1woqbeJgynY7qyY9pGw8gUTjc9KIdLHYxSFNqhcgcFNYOQd7CQuarGAIo7hAl8fYpQGNdPLQhUzRVzEg8vnY3tCUC4RFIHQdlhsPfeYAssiougPLpsV5t6b3-opmCtbKY5mACnvuVVhibtSTkzHj_JuqnLhvsQLNFvFJXLOnejHjYpBIIIffo_oGyaAoQUOh6QObJwDYzmiZDbpLOoJ8G65PW6OQPJn3zH2B9qDBItb27gTdXmjIiU3Uqcw2zbp4-7XCMBEwewvhqdRMLCbgZxIwJ7qfcCouTpsJT65qKLcluWfDQdKZJ89VcflTWYe9UjIeI3_QIhbVggy8RtOVXZv8LTq3mupf8fKbxMi6dWJFNZuFViXvMWJX_6n-mQlWV7PnlWod_FAXm7HkaGxgnKNe7KDUJcVBiskF3uFB8BoUbh6MOV2g9rGp3Rf5dC_F61FayOB5SZgVyd9syNRn9iXVU1lLPRztj0SdXuUmnymVxDMtxQIug0RD_VsWOtsL3IhRWNTZzsR-JffRhlRo7WTDmDuvoT-5fTa-N773mWIQITN9yw1_CSq6RMDTrr7fttVOVARIRWUzfTzBsn-csj-z4aeehxQEvWJA-JQejpWUdtQ-VDhsxiTBEqlxtzhwFm00?></g></svg>