<svg xmlns="http://www.w3.org/2000/svg" xmlns:xlink="http://www.w3.org/1999/xlink" version="1.1" data-diagram-type="SEQUENCE" style="width:1604px;height:1762px;background:#FFFFFF;" width="1604.688px" height="1762.5px" viewBox="0 0 1604 1762" zoomAndPan="magnify" preserveAspectRatio="none" contentStyleType="text/css"><?plantuml 1.2026.8?><defs/><g font-family="sans-serif" lengthAdjust="spacing"><g><title>Encontrante</title><rect x="64.612" y="134.314" width="12.5" height="1611.774" fill="#000" fill-opacity="0"/><line x1="70.081" y1="134.314" x2="70.081" y2="1746.088" style="stroke:#7A8CA5;stroke-width:0.781;stroke-dasharray:7.813,7.813;"/></g><g><title>panelDevolucion.jsp</title><rect x="292.595" y="134.314" width="12.5" height="1611.774" fill="#000" fill-opacity="0"/><line x1="298.064" y1="134.314" x2="298.064" y2="1746.088" style="stroke:#7A8CA5;stroke-width:0.781;stroke-dasharray:7.813,7.813;"/></g><g><title>.ControlDevoluciones</title><rect x="541.032" y="134.314" width="12.5" height="1611.774" fill="#000" fill-opacity="0"/><line x1="546.501" y1="134.314" x2="546.501" y2="1746.088" style="stroke:#7A8CA5;stroke-width:0.781;stroke-dasharray:7.813,7.813;"/></g><g><title></title><rect x="538.689" y="354.791" width="15.625" height="200.787" fill="#FFF" style="stroke:#181818;stroke-width:1.563;"/></g><g><title></title><rect x="538.689" y="829.651" width="15.625" height="212.195" fill="#FFF" style="stroke:#181818;stroke-width:1.563;"/></g><g><title></title><rect x="538.689" y="1284.198" width="15.625" height="370.325" fill="#FFF" style="stroke:#181818;stroke-width:1.563;"/></g><g><title>.ReclamacionDAO</title><rect x="768.657" y="134.314" width="12.5" height="1611.774" fill="#000" fill-opacity="0"/><line x1="774.126" y1="134.314" x2="774.126" y2="1746.088" style="stroke:#7A8CA5;stroke-width:0.781;stroke-dasharray:7.813,7.813;"/></g><g><title>.Reclamacion</title><rect x="927.911" y="134.314" width="12.5" height="1611.774" fill="#000" fill-opacity="0"/><line x1="933.38" y1="134.314" x2="933.38" y2="1746.088" style="stroke:#7A8CA5;stroke-width:0.781;stroke-dasharray:7.813,7.813;"/></g><g><title>.Reporte</title><rect x="1041.956" y="134.314" width="12.5" height="1611.774" fill="#000" fill-opacity="0"/><line x1="1047.424" y1="134.314" x2="1047.424" y2="1746.088" style="stroke:#7A8CA5;stroke-width:0.781;stroke-dasharray:7.813,7.813;"/></g><g><title>.AcuerdoEntrega</title><rect x="1170.41" y="134.314" width="12.5" height="1611.774" fill="#000" fill-opacity="0"/><line x1="1175.879" y1="134.314" x2="1175.879" y2="1746.088" style="stroke:#7A8CA5;stroke-width:0.781;stroke-dasharray:7.813,7.813;"/></g><g><title>vistaAcuerdo</title><rect x="1317.523" y="134.314" width="12.5" height="1611.774" fill="#000" fill-opacity="0"/><line x1="1322.992" y1="134.314" x2="1322.992" y2="1746.088" style="stroke:#7A8CA5;stroke-width:0.781;stroke-dasharray:7.813,7.813;"/></g><g><title>Reclamante</title><rect x="1527.562" y="134.314" width="12.5" height="1611.774" fill="#000" fill-opacity="0"/><line x1="1533.031" y1="134.314" x2="1533.031" y2="1746.088" style="stroke:#7A8CA5;stroke-width:0.781;stroke-dasharray:7.813,7.813;"/></g><text x="15.625" y="129.608" fill="#000" font-size="18.75" textLength="99.536" font-family="'Segoe UI'">Encontrante</text><ellipse cx="70.081" cy="28.906" rx="12.5" ry="12.5" fill="#FFF" style="stroke:#12355B;stroke-width:0.781;"/><path d="M70.081,41.406 L70.081,83.594 M49.768,53.906 L90.393,53.906 M70.081,83.594 L49.768,107.031 M70.081,83.594 L90.393,107.031" style="stroke:#12355B;stroke-width:0.781;" fill="none"/><text x="210.388" y="129.608" fill="#000" font-size="18.75" textLength="165.976" font-family="'Segoe UI'">panelDevolucion.jsp</text><path d="M266.032,65.625 L266.032,103.125 M266.032,84.375 L292.595,84.375" style="stroke:#12355B;stroke-width:0.781;" fill="none"/><ellipse cx="311.345" cy="84.375" rx="18.75" ry="18.75" fill="#DCE8F7" style="stroke:#12355B;stroke-width:0.781;"/><text x="453.662" y="129.608" fill="#000" font-size="18.75" textLength="176.303" font-family="'Segoe UI'">:ControlDevoluciones</text><ellipse cx="546.501" cy="84.375" rx="18.75" ry="18.75" fill="#FCE7CC" style="stroke:#9A5B13;stroke-width:0.781;"/><polygon points="540.251,65.625,549.626,57.813,546.501,65.625,549.626,73.438,540.251,65.625" fill="#9A5B13" style="stroke:#9A5B13;stroke-width:1.563;stroke-linejoin:miter;stroke-miterlimit:10;"/><rect x="689.342" y="85.938" width="169.568" height="46.814" fill="#F1F4F8" style="stroke:#12355B;stroke-width:0.781;" rx="6.25" ry="6.25"/><text x="700.279" y="117.108" fill="#000" font-size="18.75" textLength="147.693" font-family="'Segoe UI'">:ReclamacionDAO</text><text x="874.535" y="129.608" fill="#000" font-size="18.75" textLength="108.316" font-family="'Segoe UI'">:Reclamacion</text><ellipse cx="933.38" cy="84.375" rx="18.75" ry="18.75" fill="#DDF1E3" style="stroke:#1E6B3A;stroke-width:0.781;"/><line x1="914.63" y1="106.25" x2="952.13" y2="106.25" style="stroke:#1E6B3A;stroke-width:0.781;"/><text x="1007.851" y="129.608" fill="#000" font-size="18.75" textLength="69.772" font-family="'Segoe UI'">:Reporte</text><ellipse cx="1047.424" cy="84.375" rx="18.75" ry="18.75" fill="#DDF1E3" style="stroke:#1E6B3A;stroke-width:0.781;"/><line x1="1028.674" y1="106.25" x2="1066.174" y2="106.25" style="stroke:#1E6B3A;stroke-width:0.781;"/><text x="1102.623" y="129.608" fill="#000" font-size="18.75" textLength="137.137" font-family="'Segoe UI'">:AcuerdoEntrega</text><ellipse cx="1175.879" cy="84.375" rx="18.75" ry="18.75" fill="#DDF1E3" style="stroke:#1E6B3A;stroke-width:0.781;"/><line x1="1157.129" y1="106.25" x2="1194.629" y2="106.25" style="stroke:#1E6B3A;stroke-width:0.781;"/><text x="1264.76" y="104.669" fill="#000" font-size="18.75" textLength="107.089" font-family="'Segoe UI'">vistaAcuerdo</text><text x="1272.835" y="129.608" fill="#000" font-size="18.75" textLength="90.939" font-family="'Segoe UI'">Entrega.jsp</text><path d="M1290.961,40.686 L1290.961,78.186 M1290.961,59.436 L1317.523,59.436" style="stroke:#12355B;stroke-width:0.781;" fill="none"/><ellipse cx="1336.273" cy="59.436" rx="18.75" ry="18.75" fill="#DCE8F7" style="stroke:#12355B;stroke-width:0.781;"/><text x="1480.232" y="129.608" fill="#000" font-size="18.75" textLength="96.222" font-family="'Segoe UI'">Reclamante</text><ellipse cx="1533.031" cy="28.906" rx="12.5" ry="12.5" fill="#FFF" style="stroke:#12355B;stroke-width:0.781;"/><path d="M1533.031,41.406 L1533.031,83.594 M1512.718,53.906 L1553.343,53.906 M1533.031,83.594 L1512.718,107.031 M1533.031,83.594 L1553.343,107.031" style="stroke:#12355B;stroke-width:0.781;" fill="none"/><path d="M481.495,160.876 L481.495,204.626 A6.25,6.25 0 0 0 487.745,210.876 L1590.87,210.876 A6.25,6.25 0 0 0 1597.12,204.626 L1597.12,170.251 L1581.495,154.626 L487.745,154.626 A6.25,6.25 0 0 0 481.495,160.876" style="stroke:#C9A227;stroke-width:0.781;" fill="#FFF8E1"/><path d="M1581.495,154.626 L1581.495,167.126 A3.125,3.125 0 0 0 1584.62,170.251 L1597.12,170.251 L1581.495,154.626" style="stroke:#C9A227;stroke-width:0.781;" fill="#FFF8E1"/><text x="760.594" y="179.3" fill="#000" font-size="15.625" textLength="544.281" font-family="'Segoe UI'">En otra sesión, el reclamante consulta la propuesta desde «Mis reclamaciones».</text><text x="760.594" y="200.082" fill="#000" font-size="15.625" textLength="293.709" font-family="'Segoe UI'">No se supone una notificación automática.</text><polygon points="1340.179,285.101,1324.554,291.351,1340.179,297.601,1333.929,291.351" fill="#3A4A5E" style="stroke:#3A4A5E;stroke-width:1.563;stroke-linejoin:miter;stroke-miterlimit:10;"/><line x1="1330.804" y1="291.351" x2="1531.468" y2="291.351" style="stroke:#3A4A5E;stroke-width:1.563;"/><text x="1349.554" y="242.74" fill="#3A4A5E" font-size="15.625" textLength="20.233" font-family="'Segoe UI'">25.</text><text x="1369.788" y="242.74" fill="#3A4A5E" font-size="15.625" font-family="'Segoe UI'"> </text><text x="1374.068" y="242.74" fill="#3A4A5E" font-size="15.625" textLength="65.605" font-family="'Segoe UI'">Consultar</text><text x="1439.673" y="242.74" fill="#3A4A5E" font-size="15.625" font-family="'Segoe UI'"> </text><text x="1443.953" y="242.74" fill="#3A4A5E" font-size="15.625" textLength="69.847" font-family="'Segoe UI'">propuesta</text><text x="1349.554" y="263.522" fill="#3A4A5E" font-size="15.625" textLength="31.525" font-family="'Segoe UI'">[GET</text><text x="1349.554" y="284.305" fill="#3A4A5E" font-size="15.625" textLength="164.215" font-family="'Segoe UI'">/devoluciones?acuerdo]</text><polygon points="571.501,348.541,555.876,354.791,571.501,361.041,565.251,354.791" fill="#3A4A5E" style="stroke:#3A4A5E;stroke-width:1.563;stroke-linejoin:miter;stroke-miterlimit:10;"/><line x1="562.126" y1="354.791" x2="1321.429" y2="354.791" style="stroke:#3A4A5E;stroke-width:1.563;"/><text x="580.876" y="326.962" fill="#3A4A5E" font-size="15.625" textLength="20.233" font-family="'Segoe UI'">26.</text><text x="601.109" y="326.962" fill="#3A4A5E" font-size="15.625" font-family="'Segoe UI'"> </text><text x="605.389" y="326.962" fill="#3A4A5E" font-size="15.625" textLength="164.398" font-family="'Segoe UI'">consultarAcuerdo(actor,</text><text x="580.876" y="347.745" fill="#3A4A5E" font-size="15.625" textLength="17.7" font-family="'Segoe UI'">id)</text><path d="M368.291,381.354 L368.291,404.791 A6.25,6.25 0 0 0 374.541,411.041 L718.291,411.041 A6.25,6.25 0 0 0 724.541,404.791 L724.541,390.729 L708.916,375.104 L374.541,375.104 A6.25,6.25 0 0 0 368.291,381.354" style="stroke:#C9A227;stroke-width:0.781;" fill="#FFF8E1"/><path d="M708.916,375.104 L708.916,387.604 A3.125,3.125 0 0 0 712.041,390.729 L724.541,390.729 L708.916,375.104" style="stroke:#C9A227;stroke-width:0.781;" fill="#FFF8E1"/><text x="377.666" y="399.777" fill="#000" font-size="15.625" textLength="323.608" font-family="'Segoe UI'">verifica que el actor participe en la reclamación</text><polygon points="914.63,443.231,930.255,449.481,914.63,455.731,920.88,449.481" fill="#3A4A5E" style="stroke:#3A4A5E;stroke-width:1.563;stroke-linejoin:miter;stroke-miterlimit:10;"/><line x1="554.314" y1="449.481" x2="924.005" y2="449.481" style="stroke:#3A4A5E;stroke-width:1.563;"/><text x="565.251" y="442.435" fill="#3A4A5E" font-size="15.625" textLength="20.233" font-family="'Segoe UI'">27.</text><text x="585.484" y="442.435" fill="#3A4A5E" font-size="15.625" font-family="'Segoe UI'"> </text><text x="589.764" y="442.435" fill="#3A4A5E" font-size="15.625" textLength="90.195" font-family="'Segoe UI'">getAcuerdo()</text><polygon points="571.501,485.889,555.876,492.139,571.501,498.389,565.251,492.139" fill="#3A4A5E" style="stroke:#3A4A5E;stroke-width:1.563;stroke-linejoin:miter;stroke-miterlimit:10;"/><line x1="562.126" y1="492.139" x2="931.818" y2="492.139" style="stroke:#3A4A5E;stroke-width:1.563;stroke-dasharray:3.125,3.125;"/><text x="580.876" y="485.092" fill="#3A4A5E" font-size="15.625" textLength="20.233" font-family="'Segoe UI'">28.</text><text x="601.109" y="485.092" fill="#3A4A5E" font-size="15.625" font-family="'Segoe UI'"> </text><text x="605.389" y="485.092" fill="#3A4A5E" font-size="15.625" textLength="55.969" font-family="'Segoe UI'">acuerdo</text><polygon points="1304.242,549.329,1319.867,555.579,1304.242,561.829,1310.492,555.579" fill="#3A4A5E" style="stroke:#3A4A5E;stroke-width:1.563;stroke-linejoin:miter;stroke-miterlimit:10;"/><line x1="554.314" y1="555.579" x2="1313.617" y2="555.579" style="stroke:#3A4A5E;stroke-width:1.563;stroke-dasharray:3.125,3.125;"/><text x="565.251" y="527.75" fill="#3A4A5E" font-size="15.625" textLength="20.233" font-family="'Segoe UI'">29.</text><text x="585.484" y="527.75" fill="#3A4A5E" font-size="15.625" font-family="'Segoe UI'"> </text><text x="589.764" y="527.75" fill="#3A4A5E" font-size="15.625" textLength="55.969" font-family="'Segoe UI'">acuerdo</text><text x="645.734" y="527.75" fill="#3A4A5E" font-size="15.625" font-family="'Segoe UI'"> </text><text x="650.014" y="527.75" fill="#3A4A5E" font-size="15.625" textLength="73.83" font-family="'Segoe UI'">autorizado</text><text x="565.251" y="548.532" fill="#3A4A5E" font-size="15.625" textLength="62.782" font-family="'Segoe UI'">[forward]</text><line x1="1322.992" y1="619.019" x2="1388.617" y2="619.019" style="stroke:#3A4A5E;stroke-width:1.563;"/><line x1="1388.617" y1="619.019" x2="1388.617" y2="639.331" style="stroke:#3A4A5E;stroke-width:1.563;"/><line x1="1324.554" y1="639.331" x2="1388.617" y2="639.331" style="stroke:#3A4A5E;stroke-width:1.563;"/><polygon points="1340.179,633.081,1324.554,639.331,1340.179,645.581,1333.929,639.331" fill="#3A4A5E" style="stroke:#3A4A5E;stroke-width:1.563;stroke-linejoin:miter;stroke-miterlimit:10;"/><text x="1333.929" y="591.19" fill="#3A4A5E" font-size="15.625" textLength="20.233" font-family="'Segoe UI'">30.</text><text x="1333.929" y="611.972" fill="#3A4A5E" font-size="15.625" textLength="188.164" font-family="'Segoe UI'">mostrarPropuesta(acuerdo)</text><polygon points="1514.281,696.521,1529.906,702.771,1514.281,709.021,1520.531,702.771" fill="#3A4A5E" style="stroke:#3A4A5E;stroke-width:1.563;stroke-linejoin:miter;stroke-miterlimit:10;"/><line x1="1322.992" y1="702.771" x2="1523.656" y2="702.771" style="stroke:#3A4A5E;stroke-width:1.563;stroke-dasharray:3.125,3.125;"/><text x="1333.929" y="674.942" fill="#3A4A5E" font-size="15.625" textLength="20.233" font-family="'Segoe UI'">31.</text><text x="1354.163" y="674.942" fill="#3A4A5E" font-size="15.625" font-family="'Segoe UI'"> </text><text x="1358.443" y="674.942" fill="#3A4A5E" font-size="15.625" textLength="38.78" font-family="'Segoe UI'">Lugar</text><text x="1397.223" y="674.942" fill="#3A4A5E" font-size="15.625" font-family="'Segoe UI'"> </text><text x="1401.503" y="674.942" fill="#3A4A5E" font-size="15.625" font-family="'Segoe UI'">y</text><text x="1409.064" y="674.942" fill="#3A4A5E" font-size="15.625" font-family="'Segoe UI'"> </text><text x="1413.344" y="674.942" fill="#3A4A5E" font-size="15.625" textLength="37.071" font-family="'Segoe UI'">fecha</text><text x="1333.929" y="695.724" fill="#3A4A5E" font-size="15.625" textLength="77.682" font-family="'Segoe UI'">propuestos</text><polygon points="1340.179,739.178,1324.554,745.428,1340.179,751.678,1333.929,745.428" fill="#3A4A5E" style="stroke:#3A4A5E;stroke-width:1.563;stroke-linejoin:miter;stroke-miterlimit:10;"/><line x1="1330.804" y1="745.428" x2="1531.468" y2="745.428" style="stroke:#3A4A5E;stroke-width:1.563;"/><text x="1349.554" y="738.382" fill="#3A4A5E" font-size="15.625" textLength="20.233" font-family="'Segoe UI'">32.</text><text x="1369.788" y="738.382" fill="#3A4A5E" font-size="15.625" font-family="'Segoe UI'"> </text><text x="1374.068" y="738.382" fill="#3A4A5E" font-size="15.625" textLength="146.675" font-family="'Segoe UI'">confirmarAcuerdo(id)</text><polygon points="571.501,823.401,555.876,829.651,571.501,835.901,565.251,829.651" fill="#3A4A5E" style="stroke:#3A4A5E;stroke-width:1.563;stroke-linejoin:miter;stroke-miterlimit:10;"/><line x1="562.126" y1="829.651" x2="1321.429" y2="829.651" style="stroke:#3A4A5E;stroke-width:1.563;"/><text x="580.876" y="781.039" fill="#3A4A5E" font-size="15.625" textLength="20.233" font-family="'Segoe UI'">33.</text><text x="601.109" y="781.039" fill="#3A4A5E" font-size="15.625" font-family="'Segoe UI'"> </text><text x="605.389" y="781.039" fill="#3A4A5E" font-size="15.625" textLength="167.412" font-family="'Segoe UI'">confirmarAcuerdo(actor,</text><text x="580.876" y="801.822" fill="#3A4A5E" font-size="15.625" textLength="17.7" font-family="'Segoe UI'">id)</text><text x="598.576" y="801.822" fill="#3A4A5E" font-size="15.625" textLength="8.56" font-family="'Segoe UI'">  </text><text x="607.137" y="801.822" fill="#3A4A5E" font-size="15.625" textLength="41.733" font-family="'Segoe UI'">[POST</text><text x="580.876" y="822.604" fill="#3A4A5E" font-size="15.625" textLength="183.83" font-family="'Segoe UI'">accion=confirmarAcuerdo]</text><polygon points="1157.129,866.058,1172.754,872.308,1157.129,878.558,1163.379,872.308" fill="#3A4A5E" style="stroke:#3A4A5E;stroke-width:1.563;stroke-linejoin:miter;stroke-miterlimit:10;"/><line x1="554.314" y1="872.308" x2="1166.504" y2="872.308" style="stroke:#3A4A5E;stroke-width:1.563;"/><text x="565.251" y="865.262" fill="#3A4A5E" font-size="15.625" textLength="20.233" font-family="'Segoe UI'">34.</text><text x="585.484" y="865.262" fill="#3A4A5E" font-size="15.625" font-family="'Segoe UI'"> </text><text x="589.764" y="865.262" fill="#3A4A5E" font-size="15.625" textLength="112.663" font-family="'Segoe UI'">confirmar(fecha)</text><polygon points="571.501,929.498,555.876,935.748,571.501,941.998,565.251,935.748" fill="#3A4A5E" style="stroke:#3A4A5E;stroke-width:1.563;stroke-linejoin:miter;stroke-miterlimit:10;"/><line x1="562.126" y1="935.748" x2="1174.316" y2="935.748" style="stroke:#3A4A5E;stroke-width:1.563;stroke-dasharray:3.125,3.125;"/><text x="580.876" y="907.919" fill="#3A4A5E" font-size="15.625" textLength="20.233" font-family="'Segoe UI'">35.</text><text x="601.109" y="907.919" fill="#3A4A5E" font-size="15.625" font-family="'Segoe UI'"> </text><text x="605.389" y="907.919" fill="#3A4A5E" font-size="15.625" textLength="39.81" font-family="'Segoe UI'">Fecha</text><text x="645.2" y="907.919" fill="#3A4A5E" font-size="15.625" font-family="'Segoe UI'"> </text><text x="649.48" y="907.919" fill="#3A4A5E" font-size="15.625" textLength="17.372" font-family="'Segoe UI'">de</text><text x="666.852" y="907.919" fill="#3A4A5E" font-size="15.625" font-family="'Segoe UI'"> </text><text x="671.132" y="907.919" fill="#3A4A5E" font-size="15.625" textLength="89.729" font-family="'Segoe UI'">confirmación</text><text x="580.876" y="928.702" fill="#3A4A5E" font-size="15.625" textLength="69.046" font-family="'Segoe UI'">registrada</text><polygon points="755.376,972.156,771.001,978.406,755.376,984.656,761.626,978.406" fill="#3A4A5E" style="stroke:#3A4A5E;stroke-width:1.563;stroke-linejoin:miter;stroke-miterlimit:10;"/><line x1="554.314" y1="978.406" x2="764.751" y2="978.406" style="stroke:#3A4A5E;stroke-width:1.563;"/><text x="565.251" y="971.359" fill="#3A4A5E" font-size="15.625" textLength="28.183" font-family="'Segoe UI'">35a.</text><text x="593.434" y="971.359" fill="#3A4A5E" font-size="15.625" font-family="'Segoe UI'"> </text><text x="597.714" y="971.359" fill="#3A4A5E" font-size="15.625" textLength="157.661" font-family="'Segoe UI'">actualizar(reclamacion)</text><polygon points="1304.242,1035.596,1319.867,1041.846,1304.242,1048.096,1310.492,1041.846" fill="#3A4A5E" style="stroke:#3A4A5E;stroke-width:1.563;stroke-linejoin:miter;stroke-miterlimit:10;"/><line x1="554.314" y1="1041.846" x2="1313.617" y2="1041.846" style="stroke:#3A4A5E;stroke-width:1.563;stroke-dasharray:3.125,3.125;"/><text x="565.251" y="1014.017" fill="#3A4A5E" font-size="15.625" textLength="20.233" font-family="'Segoe UI'">36.</text><text x="585.484" y="1014.017" fill="#3A4A5E" font-size="15.625" font-family="'Segoe UI'"> </text><text x="589.764" y="1014.017" fill="#3A4A5E" font-size="15.625" textLength="58.098" font-family="'Segoe UI'">Acuerdo</text><text x="647.862" y="1014.017" fill="#3A4A5E" font-size="15.625" font-family="'Segoe UI'"> </text><text x="652.142" y="1014.017" fill="#3A4A5E" font-size="15.625" textLength="79.086" font-family="'Segoe UI'">confirmado</text><text x="565.251" y="1034.799" fill="#3A4A5E" font-size="15.625" textLength="62.134" font-family="'Segoe UI'">[redirect]</text><polygon points="1514.281,1078.253,1529.906,1084.503,1514.281,1090.753,1520.531,1084.503" fill="#3A4A5E" style="stroke:#3A4A5E;stroke-width:1.563;stroke-linejoin:miter;stroke-miterlimit:10;"/><line x1="1322.992" y1="1084.503" x2="1523.656" y2="1084.503" style="stroke:#3A4A5E;stroke-width:1.563;stroke-dasharray:3.125,3.125;"/><text x="1333.929" y="1077.457" fill="#3A4A5E" font-size="15.625" textLength="20.233" font-family="'Segoe UI'">37.</text><text x="1354.163" y="1077.457" fill="#3A4A5E" font-size="15.625" font-family="'Segoe UI'"> </text><text x="1358.443" y="1077.457" fill="#3A4A5E" font-size="15.625" textLength="92.186" font-family="'Segoe UI'">Confirmación</text><text x="1450.629" y="1077.457" fill="#3A4A5E" font-size="15.625" font-family="'Segoe UI'"> </text><text x="1454.909" y="1077.457" fill="#3A4A5E" font-size="15.625" textLength="42.824" font-family="'Segoe UI'">visible</text><path d="M24.266,1111.066 L24.266,1134.503 A6.25,6.25 0 0 0 30.516,1140.753 L1571.141,1140.753 A6.25,6.25 0 0 0 1577.391,1134.503 L1577.391,1120.441 L1561.766,1104.816 L30.516,1104.816 A6.25,6.25 0 0 0 24.266,1111.066" style="stroke:#C9A227;stroke-width:0.781;" fill="#FFF8E1"/><path d="M1561.766,1104.816 L1561.766,1117.316 A3.125,3.125 0 0 0 1564.891,1120.441 L1577.391,1120.441 L1561.766,1104.816" style="stroke:#C9A227;stroke-width:0.781;" fill="#FFF8E1"/><text x="435.939" y="1129.489" fill="#000" font-size="15.625" textLength="717.171" font-family="'Segoe UI'">Transcurre el tiempo acordado. Encontrante y reclamante realizan la entrega física fuera de la aplicación.</text><polygon points="279.314,1172.943,294.939,1179.193,279.314,1185.443,285.564,1179.193" fill="#3A4A5E" style="stroke:#3A4A5E;stroke-width:1.563;stroke-linejoin:miter;stroke-miterlimit:10;"/><line x1="70.081" y1="1179.193" x2="288.689" y2="1179.193" style="stroke:#3A4A5E;stroke-width:1.563;"/><text x="81.018" y="1172.147" fill="#3A4A5E" font-size="15.625" textLength="20.233" font-family="'Segoe UI'">38.</text><text x="101.251" y="1172.147" fill="#3A4A5E" font-size="15.625" font-family="'Segoe UI'"> </text><text x="105.531" y="1172.147" fill="#3A4A5E" font-size="15.625" textLength="165.97" font-family="'Segoe UI'">confirmarDevolucion(id)</text><polygon points="519.939,1277.948,535.564,1284.198,519.939,1290.448,526.189,1284.198" fill="#3A4A5E" style="stroke:#3A4A5E;stroke-width:1.563;stroke-linejoin:miter;stroke-miterlimit:10;"/><line x1="298.064" y1="1284.198" x2="529.314" y2="1284.198" style="stroke:#3A4A5E;stroke-width:1.563;"/><text x="309.001" y="1214.804" fill="#3A4A5E" font-size="15.625" textLength="20.233" font-family="'Segoe UI'">39.</text><text x="309.001" y="1235.587" fill="#3A4A5E" font-size="15.625" textLength="186.707" font-family="'Segoe UI'">confirmarDevolucion(actor,</text><text x="309.001" y="1256.369" fill="#3A4A5E" font-size="15.625" textLength="16.373" font-family="'Segoe UI'">id,</text><text x="325.374" y="1256.369" fill="#3A4A5E" font-size="15.625" font-family="'Segoe UI'"> </text><text x="329.654" y="1256.369" fill="#3A4A5E" font-size="15.625" textLength="41.786" font-family="'Segoe UI'">fecha)</text><text x="371.44" y="1256.369" fill="#3A4A5E" font-size="15.625" textLength="8.56" font-family="'Segoe UI'">  </text><text x="380" y="1256.369" fill="#3A4A5E" font-size="15.625" textLength="41.733" font-family="'Segoe UI'">[POST</text><text x="309.001" y="1277.151" fill="#3A4A5E" font-size="15.625" textLength="203.125" font-family="'Segoe UI'">accion=confirmarDevolucion]</text><path d="M335.847,1310.76 L335.847,1334.198 A6.25,6.25 0 0 0 342.097,1340.448 L749.909,1340.448 A6.25,6.25 0 0 0 756.159,1334.198 L756.159,1320.135 L740.534,1304.51 L342.097,1304.51 A6.25,6.25 0 0 0 335.847,1310.76" style="stroke:#C9A227;stroke-width:0.781;" fill="#FFF8E1"/><path d="M740.534,1304.51 L740.534,1317.01 A3.125,3.125 0 0 0 743.659,1320.135 L756.159,1320.135 L740.534,1304.51" style="stroke:#C9A227;stroke-width:0.781;" fill="#FFF8E1"/><text x="345.222" y="1329.184" fill="#000" font-size="15.625" textLength="388.496" font-family="'Segoe UI'">comprueba acuerdo confirmado y reclamación aceptada</text><polygon points="1028.674,1372.638,1044.299,1378.888,1028.674,1385.138,1034.924,1378.888" fill="#3A4A5E" style="stroke:#3A4A5E;stroke-width:1.563;stroke-linejoin:miter;stroke-miterlimit:10;"/><line x1="554.314" y1="1378.888" x2="1038.049" y2="1378.888" style="stroke:#3A4A5E;stroke-width:1.563;"/><text x="565.251" y="1371.841" fill="#3A4A5E" font-size="15.625" textLength="20.233" font-family="'Segoe UI'">40.</text><text x="585.484" y="1371.841" fill="#3A4A5E" font-size="15.625" font-family="'Segoe UI'"> </text><text x="589.764" y="1371.841" fill="#3A4A5E" font-size="15.625" textLength="165.092" font-family="'Segoe UI'">marcarEntregado(fecha)</text><polygon points="571.501,1436.078,555.876,1442.328,571.501,1448.578,565.251,1442.328" fill="#3A4A5E" style="stroke:#3A4A5E;stroke-width:1.563;stroke-linejoin:miter;stroke-miterlimit:10;"/><line x1="562.126" y1="1442.328" x2="1045.862" y2="1442.328" style="stroke:#3A4A5E;stroke-width:1.563;stroke-dasharray:3.125,3.125;"/><text x="580.876" y="1414.499" fill="#3A4A5E" font-size="15.625" textLength="20.233" font-family="'Segoe UI'">41.</text><text x="601.109" y="1414.499" fill="#3A4A5E" font-size="15.625" font-family="'Segoe UI'"> </text><text x="605.389" y="1414.499" fill="#3A4A5E" font-size="15.625" textLength="88.562" font-family="'Segoe UI'">ENTREGADO</text><text x="693.951" y="1414.499" fill="#3A4A5E" font-size="15.625" font-family="'Segoe UI'"> </text><text x="698.232" y="1414.499" fill="#3A4A5E" font-size="15.625" font-family="'Segoe UI'">y</text><text x="580.876" y="1435.281" fill="#3A4A5E" font-size="15.625" textLength="114.464" font-family="'Segoe UI'">fechaDevolucion</text><polygon points="914.63,1478.735,930.255,1484.985,914.63,1491.235,920.88,1484.985" fill="#3A4A5E" style="stroke:#3A4A5E;stroke-width:1.563;stroke-linejoin:miter;stroke-miterlimit:10;"/><line x1="554.314" y1="1484.985" x2="924.005" y2="1484.985" style="stroke:#3A4A5E;stroke-width:1.563;"/><text x="565.251" y="1477.939" fill="#3A4A5E" font-size="15.625" textLength="20.233" font-family="'Segoe UI'">42.</text><text x="585.484" y="1477.939" fill="#3A4A5E" font-size="15.625" font-family="'Segoe UI'"> </text><text x="589.764" y="1477.939" fill="#3A4A5E" font-size="15.625" textLength="79.079" font-family="'Segoe UI'">completar()</text><polygon points="571.501,1521.393,555.876,1527.643,571.501,1533.893,565.251,1527.643" fill="#3A4A5E" style="stroke:#3A4A5E;stroke-width:1.563;stroke-linejoin:miter;stroke-miterlimit:10;"/><line x1="562.126" y1="1527.643" x2="931.818" y2="1527.643" style="stroke:#3A4A5E;stroke-width:1.563;stroke-dasharray:3.125,3.125;"/><text x="580.876" y="1520.596" fill="#3A4A5E" font-size="15.625" textLength="20.233" font-family="'Segoe UI'">43.</text><text x="601.109" y="1520.596" fill="#3A4A5E" font-size="15.625" font-family="'Segoe UI'"> </text><text x="605.389" y="1520.596" fill="#3A4A5E" font-size="15.625" textLength="98.793" font-family="'Segoe UI'">COMPLETADA</text><polygon points="755.376,1584.833,771.001,1591.083,755.376,1597.333,761.626,1591.083" fill="#3A4A5E" style="stroke:#3A4A5E;stroke-width:1.563;stroke-linejoin:miter;stroke-miterlimit:10;"/><line x1="554.314" y1="1591.083" x2="764.751" y2="1591.083" style="stroke:#3A4A5E;stroke-width:1.563;"/><text x="565.251" y="1563.254" fill="#3A4A5E" font-size="15.625" textLength="28.183" font-family="'Segoe UI'">43a.</text><text x="593.434" y="1563.254" fill="#3A4A5E" font-size="15.625" font-family="'Segoe UI'"> </text><text x="597.714" y="1563.254" fill="#3A4A5E" font-size="15.625" textLength="157.661" font-family="'Segoe UI'">actualizar(reclamacion)</text><text x="565.251" y="1584.036" fill="#3A4A5E" font-size="15.625" textLength="30.35" font-family="'Segoe UI'">[una</text><text x="595.601" y="1584.036" fill="#3A4A5E" font-size="15.625" font-family="'Segoe UI'"> </text><text x="599.881" y="1584.036" fill="#3A4A5E" font-size="15.625" textLength="27.519" font-family="'Segoe UI'">sola</text><text x="627.4" y="1584.036" fill="#3A4A5E" font-size="15.625" font-family="'Segoe UI'"> </text><text x="631.68" y="1584.036" fill="#3A4A5E" font-size="15.625" textLength="83.031" font-family="'Segoe UI'">transacción]</text><polygon points="315.251,1648.273,299.626,1654.523,315.251,1660.773,309.001,1654.523" fill="#3A4A5E" style="stroke:#3A4A5E;stroke-width:1.563;stroke-linejoin:miter;stroke-miterlimit:10;"/><line x1="305.876" y1="1654.523" x2="537.126" y2="1654.523" style="stroke:#3A4A5E;stroke-width:1.563;stroke-dasharray:3.125,3.125;"/><text x="324.626" y="1626.694" fill="#3A4A5E" font-size="15.625" textLength="20.233" font-family="'Segoe UI'">44.</text><text x="344.859" y="1626.694" fill="#3A4A5E" font-size="15.625" font-family="'Segoe UI'"> </text><text x="349.139" y="1626.694" fill="#3A4A5E" font-size="15.625" textLength="77.393" font-family="'Segoe UI'">Devolución</text><text x="426.532" y="1626.694" fill="#3A4A5E" font-size="15.625" font-family="'Segoe UI'"> </text><text x="430.812" y="1626.694" fill="#3A4A5E" font-size="15.625" textLength="69.046" font-family="'Segoe UI'">registrada</text><text x="324.626" y="1647.476" fill="#3A4A5E" font-size="15.625" textLength="62.134" font-family="'Segoe UI'">[redirect]</text><polygon points="87.268,1711.713,71.643,1717.963,87.268,1724.213,81.018,1717.963" fill="#3A4A5E" style="stroke:#3A4A5E;stroke-width:1.563;stroke-linejoin:miter;stroke-miterlimit:10;"/><line x1="77.893" y1="1717.963" x2="296.501" y2="1717.963" style="stroke:#3A4A5E;stroke-width:1.563;stroke-dasharray:3.125,3.125;"/><text x="96.643" y="1690.134" fill="#3A4A5E" font-size="15.625" textLength="20.233" font-family="'Segoe UI'">45.</text><text x="116.876" y="1690.134" fill="#3A4A5E" font-size="15.625" font-family="'Segoe UI'"> </text><text x="121.156" y="1690.134" fill="#3A4A5E" font-size="15.625" textLength="92.186" font-family="'Segoe UI'">Confirmación</text><text x="213.342" y="1690.134" fill="#3A4A5E" font-size="15.625" font-family="'Segoe UI'"> </text><text x="217.622" y="1690.134" fill="#3A4A5E" font-size="15.625" textLength="17.372" font-family="'Segoe UI'">de</text><text x="96.643" y="1710.916" fill="#3A4A5E" font-size="15.625" textLength="75.638" font-family="'Segoe UI'">devolución</text><?plantuml-src TLLDazCu4BthLpHpsQGguuLyB31RGAKSCnTWKYOx5yX1iJk3fcp9I79W-3SSAMeF54Tkv8zjI_xIiCp9Bkcf-_Nhrz8z8REYpX7GM56eIDHbmVw0rqbyUdyEvsvLIQuXnuCgwamSlqlwBq3jhj4g6CN_46uy0PHWZrzqAQGo181S63n-Kn6ikRO8KxSsFOCIfU7NQ62w00xpHKIvOYKDwWE7WeEiIzIyIpF0NSfSy2lDI-us2BhX6Zay-9l-3HHeDNr6imMVm7p6ns2K38z3XTe8Or5cWWC_VkEvo9M9s3j1ctkbx4vzP8ndLcauIMIc94MK5a-0uYPifsgPStq39nMNMAnQEPIChatbCMlcpwW2JixYvcz0eV6Oc5KaXyW41R64Ip4hg2A7M2qlF6J5K5fXRsxl-gqq3lSgfLjswNfONsOrwbmbb1-lkDzU1kGF905lCMzbY-fBkEpgRpDtvQUCIKLTL0VK44yWXJD892XI20mQroroG06wFmQaXQaBwvjQQLNLv2JNEKDg__pwKfWEtAZpyqVqLhvI50rCNT4Ar9BSeApOYwpr0w-jAe-VIJuUiHHEdy8byPWk8kyWbqm7gU3DURA1F_EW1SzuK_YMNRhJiJlzLzHJrQqk8o_214G-Tdg80wTwub01EaXVJmtUr-XARuJhkejk7gZolaRYpsANDFLP7qPmXRRBDsQqUjenUXH1ovCrgxxAn_sgrq6BJvn-uSrUwGzSvrkMOy3ribDdTZ-2KXbgb5vtqepQG6C7SvGSxa44B-ehKl06zfYz6vgc31l4daszN7kXoq4kfrClw6ps6yGWA35UNxpUK2sk9Kz-HMv3mRrUInTp7iGSUNfZjkmLcv43ddlEEVQunZBaRk6AptaJRUNXt6bfQrwGY7eK-70SA3uZPxIi-g1USOsve3Fs_v9tMZxqZWneqDI9NO7X52ND56teZZ5PhRKtaHLOLjJWJEcSaaKGt4FKc62ywEfpxBt9i9bYs1__DSwHUoBTNPAyAhhvYLZY95WxXey2GOTBodTotNVoyUz1VJCdZLFkxEbmPdlt76Mgh7IDEzxREn3xvjO04G8hs_SoTPNCdR-vphXkxp9oMsiGskySCYTt9wysQNA-N5rq3X_e1PCvzmOlAtfFo1gt1dDEpeulNgvV99lbQZduYLwRE_r4qhXxp2XgXMkZSHfHATlMQBu4SlSgU5q7pzvjjgQqn9rU_6esz_WEuVu3?></g></svg>